<?xml version="1.0" encoding="UTF-8" standalone="no"?>
<!-- Created with Inkscape (http://www.inkscape.org/) -->

<svg
   xmlns:dc="http://purl.org/dc/elements/1.1/"
   xmlns:cc="http://creativecommons.org/ns#"
   xmlns:rdf="http://www.w3.org/1999/02/22-rdf-syntax-ns#"
   xmlns:svg="http://www.w3.org/2000/svg"
   xmlns="http://www.w3.org/2000/svg"
   xmlns:sodipodi="http://sodipodi.sourceforge.net/DTD/sodipodi-0.dtd"
   xmlns:inkscape="http://www.inkscape.org/namespaces/inkscape"
   width="194.88188"
   height="361.41733"
   id="svg2"
   version="1.1"
   inkscape:version="0.91 r13725"
   sodipodi:docname="line_thicknesses.svg">
  <title
     id="title2987">Line Thicknesses</title>
  <defs
     id="defs4" />
  <sodipodi:namedview
     id="base"
     pagecolor="#ffffff"
     bordercolor="#666666"
     borderopacity="1.0"
     inkscape:pageopacity="0.0"
     inkscape:pageshadow="2"
     inkscape:zoom="2.2916446"
     inkscape:cx="-28.363908"
     inkscape:cy="113.44805"
     inkscape:document-units="px"
     inkscape:current-layer="layer1"
     showgrid="true"
     units="mm"
     inkscape:window-width="1600"
     inkscape:window-height="1171"
     inkscape:window-x="156"
     inkscape:window-y="0"
     inkscape:window-maximized="1"
     inkscape:snap-page="true"
     inkscape:object-nodes="true"
     inkscape:object-paths="true"
     inkscape:snap-bbox="true">
    <inkscape:grid
       type="xygrid"
       id="grid2985"
       units="mm"
       empspacing="5"
       visible="true"
       enabled="true"
       snapvisiblegridlinesonly="true" />
  </sodipodi:namedview>
  <metadata
     id="metadata7">
    <rdf:RDF>
      <cc:Work
         rdf:about="">
        <dc:format>image/svg+xml</dc:format>
        <dc:type
           rdf:resource="http://purl.org/dc/dcmitype/StillImage" />
        <dc:title>Line Thicknesses</dc:title>
        <dc:creator>
          <cc:Agent>
            <dc:title>Freja Nordsiek</dc:title>
          </cc:Agent>
        </dc:creator>
        <cc:license
           rdf:resource="https://creativecommons.org/licenses/by/4.0/" />
      </cc:Work>
    </rdf:RDF>
  </metadata>
  <g
     inkscape:label="Layer 1"
     inkscape:groupmode="layer"
     id="layer1"
     transform="translate(0,-690.94238)">
    <path
       style="fill:none;stroke:#000000;stroke-width:0.3125;stroke-linecap:round;stroke-linejoin:round;stroke-miterlimit:4;stroke-opacity:1;stroke-dasharray:none"
       d="m 99.368848,735.80246 c 7.078192,-34.41076 28.312752,-51.61614 31.851842,-34.41076 3.53909,17.20538 0,38.71211 10.61728,38.71211 10.61728,0 21.23456,-43.01346 21.23456,-30.10942 0,12.90404 0,17.20539 10.61728,17.20539 10.61727,0 10.61727,0 10.61727,0"
       id="path3008"
       inkscape:connector-curvature="0" />
    <path
       style="fill:none;stroke:#000000;stroke-width:0.625;stroke-linecap:round;stroke-linejoin:round;stroke-miterlimit:4;stroke-opacity:1;stroke-dasharray:none"
       d="m 99.368848,796.03868 c 7.078192,-34.41076 28.312752,-51.61614 31.851842,-34.41076 3.53909,17.20538 0,38.71211 10.61728,38.71211 10.61728,0 21.23456,-43.01346 21.23456,-30.10942 0,12.90404 0,17.20539 10.61728,17.20539 10.61727,0 10.61727,0 10.61727,0"
       id="path3008-9"
       inkscape:connector-curvature="0" />
    <path
       style="fill:none;stroke:#000000;stroke-width:1.25;stroke-linecap:round;stroke-linejoin:round;stroke-miterlimit:4;stroke-opacity:1;stroke-dasharray:none"
       d="m 99.368848,856.2749 c 7.078192,-34.41076 28.312752,-51.61614 31.851842,-34.41076 3.53909,17.20538 0,38.71211 10.61728,38.71211 10.61728,0 21.23456,-43.01346 21.23456,-30.10942 0,12.90404 0,17.20539 10.61728,17.20539 10.61727,0 10.61727,0 10.61727,0"
       id="path3008-0"
       inkscape:connector-curvature="0" />
    <path
       style="fill:none;stroke:#000000;stroke-width:2.5;stroke-linecap:round;stroke-linejoin:round;stroke-miterlimit:4;stroke-opacity:1;stroke-dasharray:none"
       d="m 99.368848,916.51112 c 7.078192,-34.41076 28.312752,-51.61614 31.851842,-34.41076 3.53909,17.20538 0,38.71211 10.61728,38.71211 10.61728,0 21.23456,-43.01346 21.23456,-30.10942 0,12.90404 0,17.20539 10.61728,17.20539 10.61727,0 10.61727,0 10.61727,0"
       id="path3008-02"
       inkscape:connector-curvature="0" />
    <path
       style="fill:none;stroke:#000000;stroke-width:6.25;stroke-linecap:round;stroke-linejoin:round;stroke-miterlimit:4;stroke-opacity:1;stroke-dasharray:none"
       d="m 99.368848,976.74734 c 7.078192,-34.41076 28.312752,-51.61614 31.851842,-34.41076 3.53909,17.20538 0,38.71211 10.61728,38.71211 10.61728,0 21.23456,-43.01346 21.23456,-30.10942 0,12.90404 0,17.20539 10.61728,17.20539 10.61727,0 10.61727,0 10.61727,0"
       id="path3008-92"
       inkscape:connector-curvature="0" />
    <path
       style="fill:none;stroke:#000000;stroke-width:18.75;stroke-linecap:round;stroke-linejoin:round;stroke-miterlimit:4;stroke-opacity:1;stroke-dasharray:none"
       d="m 99.368848,1036.9835 c 7.078192,-34.4107 28.312752,-51.61608 31.851842,-34.4107 3.53909,17.2054 0,38.7121 10.61728,38.7121 10.61728,0 21.23456,-43.01341 21.23456,-30.1094 0,12.904 0,17.2054 10.61728,17.2054 10.61727,0 10.61727,0 10.61727,0"
       id="path3008-7"
       inkscape:connector-curvature="0" />
    <text
       xml:space="preserve"
       style="font-size:40px;font-style:normal;font-variant:normal;font-weight:bold;font-stretch:normal;line-height:125%;letter-spacing:0px;word-spacing:0px;fill:#000000;fill-opacity:1;stroke:none;font-family:Arial;-inkscape-font-specification:Sans Bold"
       x="3.5433071"
       y="726.37543"
       id="text3892"
       sodipodi:linespacing="125%"><tspan
         sodipodi:role="line"
         id="tspan3894"
         x="3.5433071"
         y="726.37543"
         style="font-size:24px">0.25 pt</tspan></text>
    <text
       xml:space="preserve"
       style="font-size:40px;font-style:normal;font-variant:normal;font-weight:bold;font-stretch:normal;line-height:125%;letter-spacing:0px;word-spacing:0px;fill:#000000;fill-opacity:1;stroke:none;font-family:Arial;-inkscape-font-specification:Sans Bold"
       x="16.902681"
       y="785.66479"
       id="text3892-6"
       sodipodi:linespacing="125%"><tspan
         sodipodi:role="line"
         id="tspan3894-8"
         x="16.902681"
         y="785.66479"
         style="font-size:24px">0.5 pt</tspan></text>
    <text
       xml:space="preserve"
       style="font-size:40px;font-style:normal;font-variant:normal;font-weight:bold;font-stretch:normal;line-height:125%;letter-spacing:0px;word-spacing:0px;fill:#000000;fill-opacity:1;stroke:none;font-family:Arial;-inkscape-font-specification:Sans Bold"
       x="36.918308"
       y="844.9541"
       id="text3892-9"
       sodipodi:linespacing="125%"><tspan
         sodipodi:role="line"
         id="tspan3894-6"
         x="36.918308"
         y="844.9541"
         style="font-size:24px">1 pt</tspan></text>
    <text
       xml:space="preserve"
       style="font-size:40px;font-style:normal;font-variant:normal;font-weight:bold;font-stretch:normal;line-height:125%;letter-spacing:0px;word-spacing:0px;fill:#000000;fill-opacity:1;stroke:none;font-family:Arial;-inkscape-font-specification:Sans Bold"
       x="36.918308"
       y="904.24353"
       id="text3892-9-6"
       sodipodi:linespacing="125%"><tspan
         sodipodi:role="line"
         id="tspan3894-6-7"
         x="36.918308"
         y="904.24353"
         style="font-size:24px">2 pt</tspan></text>
    <text
       xml:space="preserve"
       style="font-size:40px;font-style:normal;font-variant:normal;font-weight:bold;font-stretch:normal;line-height:125%;letter-spacing:0px;word-spacing:0px;fill:#000000;fill-opacity:1;stroke:none;font-family:Arial;-inkscape-font-specification:Sans Bold"
       x="36.918308"
       y="963.38049"
       id="text3892-9-8"
       sodipodi:linespacing="125%"><tspan
         sodipodi:role="line"
         id="tspan3894-6-1"
         x="36.918308"
         y="963.38049"
         style="font-size:24px">5 pt</tspan></text>
    <text
       xml:space="preserve"
       style="font-size:40px;font-style:normal;font-variant:normal;font-weight:bold;font-stretch:normal;line-height:125%;letter-spacing:0px;word-spacing:0px;fill:#000000;fill-opacity:1;stroke:none;font-family:Arial;-inkscape-font-specification:Sans Bold"
       x="23.558931"
       y="1022.8222"
       id="text3892-9-2"
       sodipodi:linespacing="125%"><tspan
         sodipodi:role="line"
         id="tspan3894-6-5"
         x="23.558931"
         y="1022.8222"
         style="font-size:24px">15 pt</tspan></text>
  </g>
</svg>
